<?xml version="1.0" ?>
<!-- Uploaded to: SVG Repo, www.svgrepo.com, Generator: SVG Repo Mixer Tools -->
<svg width="800px" height="800px" viewBox="0 0 20 20" version="1.1" xmlns="http://www.w3.org/2000/svg">
<g id="layer1">
<path d="M 6.5019531 0 A 0.50005 0.50005 0 0 0 6.2773438 0.052734375 L 0.27734375 3.0527344 A 0.50005 0.50005 0 0 0 0 3.5 L 0 19.5 A 0.50005 0.50005 0 0 0 0.72265625 19.947266 L 6.515625 17.050781 L 13.302734 19.958984 A 0.50005 0.50005 0 0 0 13.722656 19.947266 L 15.794922 18.910156 L 15.050781 18.166016 L 13.484375 18.949219 L 8.3886719 16.765625 C 7.8869441 16.624211 7.4129314 16.418329 6.9726562 16.158203 L 6.6972656 16.041016 A 0.50005 0.50005 0 0 0 6.2773438 16.052734 L 1 18.691406 L 1 3.8085938 L 6.515625 1.0507812 L 13.302734 3.9589844 A 0.50005 0.50005 0 0 0 13.722656 3.9472656 L 19 1.3085938 L 19 16.191406 L 17.878906 16.751953 L 18.560547 17.433594 A 1.50015 1.50015 0 0 1 18.621094 17.498047 L 19.722656 16.947266 A 0.50005 0.50005 0 0 0 20 16.5 L 20 0.5 A 0.50005 0.50005 0 0 0 19.277344 0.052734375 L 13.484375 2.9492188 L 6.6972656 0.041015625 A 0.50005 0.50005 0 0 0 6.5019531 0 z M 6.4921875 1.9921875 A 0.50005 0.50005 0 0 0 6 2.5 L 6 6.5429688 C 6.3071173 6.2664213 6.6412063 6.0218847 7 5.8125 L 7 2.5 A 0.50005 0.50005 0 0 0 6.4921875 1.9921875 z M 13.492188 4.9921875 A 0.50005 0.50005 0 0 0 13 5.5 L 13 5.8125 C 13.358794 6.0218847 13.692883 6.2664214 14 6.5429688 L 14 5.5 A 0.50005 0.50005 0 0 0 13.492188 4.9921875 z M 10 5.9921875 C 7.2444986 5.9921875 5 8.2366856 5 10.992188 C 5 13.747689 7.2444986 15.992188 10 15.992188 C 11.197593 15.992188 12.284256 15.551331 13.146484 14.845703 L 17.146484 18.847656 A 0.50063773 0.50063773 0 0 0 17.853516 18.138672 L 13.853516 14.138672 C 14.559144 13.276444 15 12.18978 15 10.992188 C 15 8.2366856 12.755501 5.9921875 10 5.9921875 z M 10 6.9921875 C 12.215061 6.9921875 14 8.7771257 14 10.992188 C 14 13.207249 12.215061 14.992188 10 14.992188 C 7.7849387 14.992188 6 13.207249 6 10.992188 C 6 8.7771257 7.7849387 6.9921875 10 6.9921875 z M 13.037109 16.152344 C 13.025114 16.159461 13.012046 16.164836 13 16.171875 L 13 17.5 A 0.50005 0.50005 0 1 0 14 17.5 L 14 17.115234 L 13.037109 16.152344 z " style="fill:#222222; fill-opacity:1; stroke:none; stroke-width:0px;"/>
</g>
</svg>