<?xml version="1.0" encoding="iso-8859-1"?>
<!-- Uploaded to: SVG Repo, www.svgrepo.com, Generator: SVG Repo Mixer Tools -->
<svg fill="#000000" height="800px" width="800px" version="1.1" id="Layer_1" xmlns="http://www.w3.org/2000/svg" xmlns:xlink="http://www.w3.org/1999/xlink" 
	 viewBox="0 0 512 512" xml:space="preserve">
<g>
	<g>
		<g>
			<path d="M198.402,228.593l-46.635-46.635c-10.965,15.403-18.56,33.323-21.845,52.715h66.005
				C196.674,232.582,197.463,230.556,198.402,228.593z"/>
			<path d="M330.044,151.799c-15.403-10.987-33.323-18.581-52.715-21.867v66.005c2.091,0.747,4.117,1.536,6.08,2.475
				L330.044,151.799z"/>
			<path d="M255.996,234.673c-11.776,0-21.333,9.579-21.333,21.333c0,11.755,9.557,21.333,21.333,21.333
				c11.776,0,21.333-9.579,21.333-21.333C277.329,244.252,267.772,234.673,255.996,234.673z"/>
			<path d="M313.589,283.42l46.635,46.635c10.965-15.403,18.56-33.323,21.845-52.715h-66.005
				C315.317,279.43,314.528,281.457,313.589,283.42z"/>
			<path d="M195.928,277.34h-66.005c3.285,19.392,10.88,37.312,21.845,52.715l46.635-46.635
				C197.463,281.457,196.674,279.43,195.928,277.34z"/>
			<path d="M234.654,195.945v-66.005c-19.392,3.264-37.312,10.88-52.715,21.845l46.635,46.635
				C230.558,197.481,232.585,196.67,234.654,195.945z"/>
			<path d="M313.585,228.587c0.939,1.984,1.728,4.011,2.475,6.08h66.005c-3.264-19.392-10.88-37.291-21.845-52.715L313.585,228.587z
				"/>
			<path d="M256,0C114.837,0,0,114.859,0,256c0,141.163,114.837,256,256,256s256-114.837,256-256C512,114.859,397.163,0,256,0z
				 M377.003,376.213c-0.149,0.149-0.192,0.341-0.32,0.469c-0.128,0.128-0.32,0.171-0.469,0.299
				C345.344,407.68,302.848,426.667,256,426.667c-46.869,0-89.365-18.987-120.235-49.685c-0.128-0.128-0.32-0.171-0.448-0.299
				c-0.149-0.128-0.192-0.32-0.32-0.469C104.32,345.344,85.333,302.848,85.333,256c0-46.848,18.987-89.323,49.664-120.213
				c0.128-0.128,0.171-0.32,0.32-0.448c0.128-0.149,0.32-0.192,0.448-0.32C166.635,104.341,209.131,85.333,256,85.333
				c46.848,0,89.344,19.008,120.213,49.685c0.149,0.128,0.341,0.171,0.469,0.32c0.128,0.128,0.171,0.32,0.32,0.448
				c30.656,30.891,49.664,73.365,49.664,120.213C426.667,302.848,407.659,345.344,377.003,376.213z"/>
			<path d="M181.948,360.213c15.403,10.987,33.323,18.581,52.715,21.867v-66.005c-2.091-0.747-4.117-1.536-6.08-2.475
				L181.948,360.213z"/>
			<path d="M277.338,316.066v66.005c19.392-3.264,37.312-10.88,52.715-21.845l-46.635-46.635
				C281.434,314.53,279.407,315.341,277.338,316.066z"/>
		</g>
	</g>
</g>
</svg>